<?xml version="1.0" encoding="UTF-8"?>
<svg version="1.1" xmlns="http://www.w3.org/2000/svg" width="380" height="358">
<path d="M0 0 C2.60220299 2.4324941 4.70933809 4.87213951 6.875 7.6875 C9.61020169 10.49636062 12.42382707 13.2079007 15.28515625 15.88671875 C28.30750803 28.2172911 28.30750803 28.2172911 29.875 36.6875 C30.02582031 37.45707031 30.17664063 38.22664063 30.33203125 39.01953125 C30.68538077 42.53505951 30.48671202 44.76379732 28.51171875 47.74609375 C26.70222887 49.80433833 24.8009183 51.73837787 22.875 53.6875 C12.49083086 66.12936165 12.56744252 77.28448556 13.734375 92.8046875 C14.26381277 101.85116759 12.68805197 108.54225161 7.625 116.125 C7.0165625 117.04796875 6.408125 117.9709375 5.78125 118.921875 C3.93377517 121.60222783 2.03386283 124.23818101 0.125 126.875 C-6.99718094 137.08612683 -7.23970129 146.5074763 -5.125 158.6875 C-4.33394074 166.84448806 -5.69589358 173.08574579 -10.6328125 179.7109375 C-13.06954042 182.57834291 -15.65054531 185.23288314 -18.3671875 187.8359375 C-29.12138603 198.15562296 -33.7710449 209.29342184 -36.21118164 223.89868164 C-37.65811411 232.55312762 -39.38612038 239.03367773 -46.5625 244.5625 C-52.49122371 248.64831923 -58.78418038 249.07229932 -65.75 249.3125 C-67.16744507 249.36724487 -67.16744507 249.36724487 -68.61352539 249.4230957 C-111.15877306 250.89017321 -147.51668731 246.02705444 -182.125 219.6875 C-182.8778125 219.13964844 -183.630625 218.59179688 -184.40625 218.02734375 C-188.31621529 215.17511161 -191.90331103 212.31190009 -195.125 208.6875 C-195.125 208.0275 -195.125 207.3675 -195.125 206.6875 C-195.69992188 206.45417969 -196.27484375 206.22085938 -196.8671875 205.98046875 C-214.84786207 195.68357726 -226.59265477 164.0744015 -231.90625 145.40625 C-242.01182952 107.41675663 -235.68617648 67.43402776 -216.2421875 33.56201172 C-213.52595523 29.00448738 -210.44687535 24.81723615 -207.125 20.6875 C-206.71523926 20.1723584 -206.30547852 19.6572168 -205.88330078 19.12646484 C-182.76224098 -9.77271669 -149.2518081 -28.96715689 -112.48046875 -33.80859375 C-71.26405354 -38.2574244 -31.87719193 -26.47311862 0 0 Z " fill="#6C3D11" transform="translate(291.125,74.3125)"/>
<path d="M0 0 C6.01825372 2.45938253 6.01825372 2.45938253 7.26953125 5.21875 C7.375 7.24609375 7.375 7.24609375 5 9.93359375 C4.53464844 10.4440625 4.06929687 10.95453125 3.58984375 11.48046875 C0.75401307 15.60199758 1.35459931 21.06285385 1.4375 25.87109375 C1.375 29.24609375 1.375 29.24609375 0.375 32.43359375 C-2.0306009 41.60494719 -0.99745535 48.97530472 3.375 57.24609375 C3.705 58.23609375 4.035 59.22609375 4.375 60.24609375 C8.8923631 62.33950592 13.46829523 63.03939332 18.375 62.24609375 C22.73850222 60.02317753 25.47044338 57.79586791 27.375 53.24609375 C28.20783171 48.4341772 27.33002291 45.72786139 24.75 41.74609375 C22.70397673 38.89230243 20.5273564 36.23657234 18.1875 33.62109375 C14.05869283 28.90710131 11.58652916 23.72230637 11.82421875 17.3046875 C12.95427912 13.08098669 16.06753494 9.97139378 19.375 7.24609375 C23.50998652 5.04360952 27.17254857 4.97740311 31.8125 4.99609375 C33.72869141 4.98835938 33.72869141 4.98835938 35.68359375 4.98046875 C43.92019722 5.57315556 50.49254824 9.4030978 56.296875 15.1484375 C72.51632308 34.41800303 72.64405153 61.47441903 71.375 85.24609375 C68.9625249 107.2734008 55.69249547 129.38364682 38.80078125 143.37890625 C26.83196586 152.05958554 15.24629618 156.45768424 0.375 155.24609375 C-11.77784063 153.21137157 -23.03330906 145.80945084 -30.625 136.24609375 C-37.60187175 124.86894078 -38.7757996 111.47620682 -35.75390625 98.5078125 C-32.83869944 90.98562312 -28.48918715 84.90812917 -21.125 81.30859375 C-17.35456692 80.16399799 -14.53918938 79.79445651 -10.625 80.24609375 C-7.21087301 82.64342263 -6.92736265 85.54403239 -6.1875 89.49609375 C-4.58385637 96.85976348 -3.14176104 101.85541901 3.4375 106.12109375 C8.78956305 109.22344124 13.46727922 110.10919034 19.62109375 108.75 C27.13712842 106.50659674 31.51621968 103.24416981 35.25 96.37109375 C37.71737588 91.03172408 38.30086052 86.96580903 36.375 81.30859375 C36.045 80.62796875 35.715 79.94734375 35.375 79.24609375 C27.68843545 77.240903 22.40915571 80.30575255 15.5 83.62890625 C14.55125 84.08007812 13.6025 84.53125 12.625 84.99609375 C11.76390625 85.4240625 10.9028125 85.85203125 10.015625 86.29296875 C6.89785412 87.418318 4.66572149 87.63560772 1.375 87.24609375 C-0.41796875 85.890625 -0.41796875 85.890625 -1.8125 84.05859375 C-2.3075 83.42179687 -2.8025 82.785 -3.3125 82.12890625 C-4.86589388 79.90052574 -6.2279322 77.57454008 -7.625 75.24609375 C-10.72585571 73.17885661 -11.35431681 73.00111952 -14.85546875 73.05078125 C-15.65791016 73.05722656 -16.46035156 73.06367188 -17.28710938 73.0703125 C-18.12048828 73.08707031 -18.95386719 73.10382813 -19.8125 73.12109375 C-21.0799707 73.13462891 -21.0799707 73.13462891 -22.37304688 73.1484375 C-24.45715243 73.17198672 -26.54111217 73.20785728 -28.625 73.24609375 C-36.54656498 55.82752649 -36.57308552 37.20584712 -30.625 19.24609375 C-25.20292378 5.88760312 -15.47994363 -4.44587667 0 0 Z " fill="#FDDF69" transform="translate(155.625,98.75390625)"/>
<path d="M0 0 C3.55495514 0.56171369 4.89836385 1.6570021 7.125 4.4375 C9.94605943 7.85567352 12.94625166 10.85333549 16.1875 13.875 C21.99982246 19.65193541 24.91567766 25.44368322 25.6875 33.625 C25.42007118 39.26081479 21.77077731 42.18379163 18 46 C7.61583086 58.44186165 7.69244252 69.59698556 8.859375 85.1171875 C9.38881277 94.16366759 7.81305197 100.85475161 2.75 108.4375 C2.1415625 109.36046875 1.533125 110.2834375 0.90625 111.234375 C-0.94122483 113.91472783 -2.84113717 116.55068101 -4.75 119.1875 C-11.87218094 129.39862683 -12.11470129 138.8199763 -10 151 C-9.20894074 159.15698806 -10.57089358 165.39824579 -15.5078125 172.0234375 C-17.94454042 174.89084291 -20.52554531 177.54538314 -23.2421875 180.1484375 C-33.99638603 190.46812296 -38.6460449 201.60592184 -41.08618164 216.21118164 C-42.53311411 224.86562762 -44.26112038 231.34617773 -51.4375 236.875 C-57.41242318 240.9926579 -63.3747397 241.27014096 -70.375 241.125 C-71.20644531 241.11597656 -72.03789062 241.10695313 -72.89453125 241.09765625 C-74.92981337 241.0742622 -76.96494564 241.03839725 -79 241 C-77 239 -77 239 -74.72265625 237.69921875 C-66.3738591 232.4887069 -58.87090777 224.3424012 -56.41137695 214.68994141 C-55.92630138 211.51809414 -55.95812634 208.54391575 -56.04296875 205.3359375 C-56.07487305 203.40427734 -56.07487305 203.40427734 -56.10742188 201.43359375 C-56.15629727 198.75030222 -56.22521818 196.06956746 -56.30273438 193.38671875 C-56.45869496 181.7763199 -54.04540224 173.14835385 -47.375 163.6875 C-43.23346512 157.7255846 -41.15553281 152.60665152 -40.11401367 145.39306641 C-38.81235393 136.68090492 -35.94207737 130.36076355 -31 123 C-29.8837166 121.23677963 -28.77883541 119.46626973 -27.6875 117.6875 C-27.21699219 116.94886719 -26.74648438 116.21023437 -26.26171875 115.44921875 C-23.3937572 109.88199927 -22.6789599 104.13915618 -22.359375 97.96875 C-22.2575325 96.41920332 -22.15463265 94.86972584 -22.05078125 93.3203125 C-21.8974967 90.92323404 -21.75140496 88.52655761 -21.62451172 86.12792969 C-20.79169873 70.85863599 -16.79055868 59.0508244 -8.9375 45.8125 C-2.73788077 34.99362489 2.11192712 25.19624438 2.1875 12.5 C2.20167969 11.4171875 2.21585937 10.334375 2.23046875 9.21875 C1.98911743 5.84801295 1.19908096 3.1469951 0 0 Z " fill="#E5D491" transform="translate(296,82)"/>
<path d="M0 0 C1.32 0 2.64 0 4 0 C4.33773437 1.08539063 4.67546875 2.17078125 5.0234375 3.2890625 C5.47392751 4.73438461 5.92445007 6.17969657 6.375 7.625 C6.59671875 8.33785156 6.8184375 9.05070313 7.046875 9.78515625 C7.37558594 10.83896484 7.37558594 10.83896484 7.7109375 11.9140625 C7.9284668 12.61305664 8.14599609 13.31205078 8.37011719 14.03222656 C8.91298273 15.72815535 9.50291866 17.40888562 10.1015625 19.0859375 C11.89676801 24.90864754 12.13725629 30.62676416 12.125 36.6875 C12.12757813 37.97011719 12.13015625 39.25273437 12.1328125 40.57421875 C12.02782791 43.28220371 11.81595878 45.442034 11 48 C10.34 48 9.68 48 9 48 C9 49.32 9 50.64 9 52 C8.34 52 7.68 52 7 52 C6.67 52.66 6.34 53.32 6 54 C3.43570321 51.43570321 3.72653506 50.39206242 3.65625 46.828125 C3.62805176 45.7777002 3.59985352 44.72727539 3.57080078 43.64501953 C3.54743652 42.52466309 3.52407227 41.40430664 3.5 40.25 C3.0930177 27.01463548 1.89604891 14.72709309 -2 2 C-1.34 2 -0.68 2 0 2 C0 1.34 0 0.68 0 0 Z " fill="#734512" transform="translate(223,129)"/>
<path d="M0 0 C0.99 0 1.98 0 3 0 C3.45152731 6.43426415 2.81636142 9.73960993 -1 15 C-3.96444787 17.552719 -6.24739905 18.18509403 -10.0625 18.3125 C-13.43812957 18.04459289 -15.24473768 17.83684154 -18 16 C-18 15.01 -18 14.02 -18 13 C-18.99 13.33 -19.98 13.66 -21 14 C-21.99 12.35 -22.98 10.7 -24 9 C-23.01 8.01 -22.02 7.02 -21 6 C-22.32 5.67 -23.64 5.34 -25 5 C-25 3.68 -25 2.36 -25 1 C-21.7 1 -18.4 1 -15 1 C-15.33 2.65 -15.66 4.3 -16 6 C-13.03 5.34 -10.06 4.68 -7 4 C-7 3.34 -7 2.68 -7 2 C-6.21625 2.04125 -5.4325 2.0825 -4.625 2.125 C-1.83883881 2.28728734 -1.83883881 2.28728734 0 0 Z " fill="#6C3D0F" transform="translate(180,185)"/>
<path d="M0 0 C3.83508337 0.59901661 6.75263671 1.78164769 10.1875 3.5625 C15.629977 6.13584511 20.05793389 6.58002815 26 6 C24 8 24 8 21.375 8.125 C20.59125 8.08375 19.8075 8.0425 19 8 C19 9.32 19 10.64 19 12 C19.66 12.33 20.32 12.66 21 13 C20.01 13.66 19.02 14.32 18 15 C17.67 14.01 17.34 13.02 17 12 C16.01 12 15.02 12 14 12 C13.67 11.01 13.34 10.02 13 9 C12.34 9 11.68 9 11 9 C10.67 10.32 10.34 11.64 10 13 C9.34 12.67 8.68 12.34 8 12 C8 11.01 8 10.02 8 9 C6.02 8.01 4.04 7.02 2 6 C2 4.35 2 2.7 2 1 C1.34 0.67 0.68 0.34 0 0 Z " fill="#744713" transform="translate(154,94)"/>
<path d="M0 0 C0.66 0 1.32 0 2 0 C2.03867188 1.64935547 2.03867188 1.64935547 2.078125 3.33203125 C2.41326238 13.06755172 3.58231549 21.16463097 8 30 C7.67 30.66 7.34 31.32 7 32 C6.34 32 5.68 32 5 32 C4.67 32.66 4.34 33.32 4 34 C3.34 33.67 2.68 33.34 2 33 C1.67 33.66 1.34 34.32 1 35 C-0.32 34.67 -1.64 34.34 -3 34 C-3.33 32.68 -3.66 31.36 -4 30 C-2.68 29.67 -1.36 29.34 0 29 C1.03726414 25.31194971 0.82372899 22.41897933 0.2578125 18.66796875 C-0.34009857 12.48049513 -0.06782673 6.2099136 0 0 Z " fill="#784C13" transform="translate(117,204)"/>
<path d="M0 0 C0.66 0.33 1.32 0.66 2 1 C1.01 2.485 1.01 2.485 0 4 C0.99 3.01 1.98 2.02 3 1 C4.67299959 1.65061095 6.33859237 2.32033324 8 3 C8.66 3.268125 9.32 3.53625 10 3.8125 C12.78237985 5.46453804 14.7799243 7.66307821 17 10 C17.66 10.66 18.32 11.32 19 12 C18.67 12.99 18.34 13.98 18 15 C16.5 13.625 16.5 13.625 15 12 C15 11.34 15 10.68 15 10 C14.34 10 13.68 10 13 10 C12.67 10.99 12.34 11.98 12 13 C8.65291949 11.45158425 5.75332488 9.50894136 2.75 7.375 C1.85796875 6.74335937 0.9659375 6.11171875 0.046875 5.4609375 C-0.96632812 4.73777344 -0.96632812 4.73777344 -2 4 C-1.34 2.68 -0.68 1.36 0 0 Z " fill="#744713" transform="translate(201,101)"/>
<path d="M0 0 C0 3 0 3 -1.23754883 4.578125 C-1.80497803 5.12984375 -2.37240723 5.6815625 -2.95703125 6.25 C-3.57513672 6.8584375 -4.19324219 7.466875 -4.83007812 8.09375 C-5.48427734 8.7228125 -6.13847656 9.351875 -6.8125 10 C-7.77639648 10.94359375 -7.77639648 10.94359375 -8.75976562 11.90625 C-9.96123546 13.08157386 -11.16575782 14.25379105 -12.37426758 15.421875 C-13.9313272 16.93333819 -15.46950719 18.46168821 -17 20 C-16.67 18.02 -16.34 16.04 -16 14 C-15.01 14 -14.02 14 -13 14 C-13 13.34 -13 12.68 -13 12 C-12.34 12 -11.68 12 -11 12 C-11 11.01 -11 10.02 -11 9 C-10.01 9 -9.02 9 -8 9 C-8 8.34 -8 7.68 -8 7 C-7.34 7 -6.68 7 -6 7 C-6 5.35 -6 3.7 -6 2 C-4.02 1.34 -2.04 0.68 0 0 Z " fill="#E0D39F" transform="translate(280,252)"/>
<path d="M0 0 C5.53398689 3.38188087 7.33622038 7.97322381 9 14 C9.68674539 17.97422101 9.98813942 21.34170375 7.87109375 24.89453125 C6.5 26.5625 6.5 26.5625 4 29 C3.67 28.01 3.34 27.02 3 26 C4.32 25.34 5.64 24.68 7 24 C6.88655624 21.8535247 6.75893655 19.70779408 6.625 17.5625 C6.55539062 16.36753906 6.48578125 15.17257813 6.4140625 13.94140625 C6.27742188 12.97074219 6.14078125 12.00007813 6 11 C5.34 10.67 4.68 10.34 4 10 C3.33333333 8 2.66666667 6 2 4 C1.34 3.67 0.68 3.34 0 3 C0 2.01 0 1.02 0 0 Z " fill="#DED4A3" transform="translate(312,97)"/>
<path d="M0 0 C0.99 0.99 1.98 1.98 3 3 C2.34 3 1.68 3 1 3 C1 4.32 1 5.64 1 7 C1.99 7.33 2.98 7.66 4 8 C3.01 8 2.02 8 1 8 C-0.37432457 11.81756824 0.32024961 15.07255329 1 19 C-2.07692057 16.23077149 -3.77800007 13.97149976 -5 10 C-5 9.01 -5 8.02 -5 7 C-4.34 7 -3.68 7 -3 7 C-2.67 7.66 -2.34 8.32 -2 9 C-1.7834375 7.88625 -1.7834375 7.88625 -1.5625 6.75 C-1.09812508 4.47972261 -0.58136431 2.24240521 0 0 Z " fill="#774C0F" transform="translate(154,183)"/>
<path d="M0 0 C-2.64738916 1.4606285 -3.89448334 2 -7 2 C-7.33 2.99 -7.66 3.98 -8 5 C-15.5 6.5 -15.5 6.5 -23 8 C-19.37573294 4.85833769 -15.37060071 3.39395814 -10.9375 1.75 C-10.21755859 1.46898437 -9.49761719 1.18796875 -8.75585938 0.8984375 C-3.36795544 -1.12265181 -3.36795544 -1.12265181 0 0 Z " fill="#623F1C" transform="translate(157,47)"/>
<path d="M0 0 C1.32 0.33 2.64 0.66 4 1 C3.34 1.66 2.68 2.32 2 3 C5.96 3 9.92 3 14 3 C14.33 3.99 14.66 4.98 15 6 C13.81921875 5.98839844 12.6384375 5.97679688 11.421875 5.96484375 C9.86458492 5.95546248 8.30729312 5.94636264 6.75 5.9375 C5.97269531 5.92912109 5.19539062 5.92074219 4.39453125 5.91210938 C3.64042969 5.90888672 2.88632813 5.90566406 2.109375 5.90234375 C1.41811523 5.89710693 0.72685547 5.89187012 0.01464844 5.88647461 C-2.09973898 6.00562029 -3.96641515 6.42381763 -6 7 C-5 4 -5 4 -3 2.9375 C-2.34 2.628125 -1.68 2.31875 -1 2 C-0.67 1.34 -0.34 0.68 0 0 Z " fill="#744911" transform="translate(182,99)"/>
<path d="M0 0 C0.99 0 1.98 0 3 0 C1.95274189 3.25813633 0.42983232 4.53606177 -2.4375 6.1875 C-7.06838102 8.54356228 -10.05275181 9.11771235 -15.1875 9.0625 C-16.81751953 9.04896484 -16.81751953 9.04896484 -18.48046875 9.03515625 C-19.31191406 9.02355469 -20.14335937 9.01195312 -21 9 C-21 8.67 -21 8.34 -21 8 C-20.35933594 7.93941406 -19.71867188 7.87882812 -19.05859375 7.81640625 C-14.01576687 7.32790588 -9.0087898 6.76220714 -4 6 C-4 5.01 -4 4.02 -4 3 C-3.01 2.67 -2.02 2.34 -1 2 C-0.67 1.34 -0.34 0.68 0 0 Z " fill="#E0D5A3" transform="translate(244,314)"/>
<path d="M0 0 C2.475 0.495 2.475 0.495 5 1 C5.1953125 7.0546875 5.1953125 7.0546875 5 9 C4.34 9.66 3.68 10.32 3 11 C2.67 10.01 2.34 9.02 2 8 C1.34 8 0.68 8 0 8 C0 5.36 0 2.72 0 0 Z " fill="#6B3D0E" transform="translate(149,182)"/>
<path d="M0 0 C0.33 0 0.66 0 1 0 C0.41903453 5.92584777 -0.76061063 9.76061063 -5 14 C-4.34 14.66 -3.68 15.32 -3 16 C-3.99 16.33 -4.98 16.66 -6 17 C-6.66 16.67 -7.32 16.34 -8 16 C-6.44584521 10.0942118 -3.40465533 5.02261107 0 0 Z " fill="#623D19" transform="translate(78,103)"/>
<path d="M0 0 C1.98 0 3.96 0 6 0 C5.75 1.875 5.75 1.875 5 4 C2.9375 5.25 2.9375 5.25 1 6 C1 6.66 1 7.32 1 8 C-1.5 9.625 -1.5 9.625 -4 11 C-3.54512809 8.4527173 -3.02046997 7.02702035 -1.4375 4.9375 C0.29792346 3.00053972 0.29792346 3.00053972 0 0 Z " fill="#754619" transform="translate(208,230)"/>
<path d="M0 0 C0.99 0 1.98 0 3 0 C2.50886719 1.7015625 2.50886719 1.7015625 2.0078125 3.4375 C0.86413405 8.01221379 0.76927958 12.30763987 0.875 17 C0.88402344 17.77472656 0.89304687 18.54945313 0.90234375 19.34765625 C0.92560612 21.23190843 0.9614636 23.11599832 1 25 C0.34 24.67 -0.32 24.34 -1 24 C-1.02893932 20.37501666 -1.04677792 16.75006287 -1.0625 13.125 C-1.07087891 12.09246094 -1.07925781 11.05992187 -1.08789062 9.99609375 C-1.09111328 9.00996094 -1.09433594 8.02382812 -1.09765625 7.0078125 C-1.10289307 6.09660645 -1.10812988 5.18540039 -1.11352539 4.24658203 C-1 2 -1 2 0 0 Z " fill="#DFD4A0" transform="translate(284,206)"/>
<path d="M0 0 C0.5625 1.9375 0.5625 1.9375 1 4 C0.67 4.33 0.34 4.66 0 5 C0.99 5.33 1.98 5.66 3 6 C-0.37097383 7.49821059 -2.20442119 8 -6 8 C-6.33 6.02 -6.66 4.04 -7 2 C-2.25 0 -2.25 0 0 0 Z " fill="#764815" transform="translate(170,183)"/>
<path d="M0 0 C3.67739103 0.55522972 5.10007136 1.85343525 7.4375 4.6875 C8.035625 5.40292969 8.63375 6.11835937 9.25 6.85546875 C9.8275 7.56316406 10.405 8.27085938 11 9 C11.97867953 10.16707534 12.95777939 11.33379848 13.9375 12.5 C14.618125 13.325 15.29875 14.15 16 15 C11.54450493 13.63859873 9.74565595 11.69243386 7 8 C6.34 7.67 5.68 7.34 5 7 C5 6.34 5 5.68 5 5 C3.68 4.67 2.36 4.34 1 4 C0.67 2.68 0.34 1.36 0 0 Z " fill="#E0D4A6" transform="translate(296,82)"/>
<path d="M0 0 C4.38889325 0.66498383 7.9811485 2.18757677 12 4 C12 4.99 12 5.98 12 7 C8.37 6.01 4.74 5.02 1 4 C0.67 2.68 0.34 1.36 0 0 Z " fill="#6B3D0E" transform="translate(156,200)"/>
<path d="M0 0 C3.0831351 1.19899698 6.06279492 2.47700477 9 4 C9 4.66 9 5.32 9 6 C10.32 6.33 11.64 6.66 13 7 C13 7.99 13 8.98 13 10 C7.67594378 7.3265957 3.36156441 5.1154241 0 0 Z " fill="#F5D46E" transform="translate(130,239)"/>
<path d="M0 0 C5.75 0.875 5.75 0.875 8 2 C9.70363822 2.22622081 11.41328701 2.40888473 13.125 2.5625 C14.03507813 2.64628906 14.94515625 2.73007813 15.8828125 2.81640625 C16.58148438 2.87699219 17.28015625 2.93757812 18 3 C14.20991318 5.52672455 12.50802658 5.44341245 8 5 C5.20446604 3.87592166 2.60250531 2.51418491 0 1 C0 0.67 0 0.34 0 0 Z " fill="#7E5510" transform="translate(158,204)"/>
<path d="M0 0 C0.99 0.66 1.98 1.32 3 2 C2.34 2 1.68 2 1 2 C1.33 2.99 1.66 3.98 2 5 C1.01 5.495 1.01 5.495 0 6 C1.32 6.66 2.64 7.32 4 8 C2.741875 8.04125 1.48375 8.0825 0.1875 8.125 C-0.52019531 8.14820313 -1.22789062 8.17140625 -1.95703125 8.1953125 C-4 8 -4 8 -7 6 C-6.360625 5.87625 -5.72125 5.7525 -5.0625 5.625 C-4.381875 5.41875 -3.70125 5.2125 -3 5 C-2.67 4.34 -2.34 3.68 -2 3 C-2.66 2.67 -3.32 2.34 -4 2 C-2.68 2 -1.36 2 0 2 C0 1.34 0 0.68 0 0 Z " fill="#7F541A" transform="translate(170,154)"/>
<path d="M0 0 C1.32 0.66 2.64 1.32 4 2 C4 2.66 4 3.32 4 4 C3.21625 4.20625 2.4325 4.4125 1.625 4.625 C-1.30916286 5.80676612 -1.30916286 5.80676612 -2.3125 9.125 C-2.539375 10.07375 -2.76625 11.0225 -3 12 C-4.21386936 8.35839192 -3.6674695 7.66834531 -2.0625 4.3125 C-1.49208984 3.10013672 -1.49208984 3.10013672 -0.91015625 1.86328125 C-0.60980469 1.24839844 -0.30945313 0.63351563 0 0 Z " fill="#653F1C" transform="translate(66,127)"/>
<path d="M0 0 C0.33 0.66 0.66 1.32 1 2 C0 5 0 5 -2 6 C-3.13350534 8.01669827 -3.13350534 8.01669827 -4 10 C-4.66 9.34 -5.32 8.68 -6 8 C-7.98 8.99 -7.98 8.99 -10 10 C-6.92118304 6.12948725 -3.99926986 2.97088618 0 0 Z " fill="#633E1B" transform="translate(111,68)"/>
<path d="M0 0 C0.99 0.33 1.98 0.66 3 1 C3.73046875 2.84765625 3.73046875 2.84765625 4.1875 5.0625 C4.34605469 5.79597656 4.50460938 6.52945313 4.66796875 7.28515625 C4.83232422 8.13400391 4.83232422 8.13400391 5 9 C5.66 9 6.32 9 7 9 C7.33 9.99 7.66 10.98 8 12 C8.66 12.33 9.32 12.66 10 13 C9.67 13.99 9.34 14.98 9 16 C6.18368359 13.50506504 4.59044019 10.73437182 2.8125 7.4375 C2.28269531 6.46683594 1.75289063 5.49617187 1.20703125 4.49609375 C0 2 0 2 0 0 Z " fill="#5F401D" transform="translate(69,243)"/>
<path d="M0 0 C0.33 0 0.66 0 1 0 C1.99 4.95 2.98 9.9 4 15 C2.68 14.67 1.36 14.34 0 14 C0 9.38 0 4.76 0 0 Z " fill="#F5D36E" transform="translate(147,182)"/>
<path d="M0 0 C0.33 0.99 0.66 1.98 1 3 C0.67 3.33 0.34 3.66 0 4 C0.66 4.66 1.32 5.32 2 6 C-0.64738916 7.4606285 -1.89448334 8 -5 8 C-4.75 5.125 -4.75 5.125 -4 2 C-1.9375 0.625 -1.9375 0.625 0 0 Z " fill="#794C16" transform="translate(185,247)"/>
<path d="M0 0 C-1.1875 2 -1.1875 2 -3 4 C-5.6875 4.25 -5.6875 4.25 -8 4 C-8.66 2.68 -9.32 1.36 -10 0 C-2.25 -1.125 -2.25 -1.125 0 0 Z " fill="#76471A" transform="translate(176,203)"/>
<path d="M0 0 C1.32 0.66 2.64 1.32 4 2 C4 2.99 4 3.98 4 5 C0.98968256 5.93423645 0.13349732 6.04449911 -3 5 C-1.125 1.125 -1.125 1.125 0 0 Z " fill="#6F420B" transform="translate(176,202)"/>
<path d="M0 0 C0.33 0 0.66 0 1 0 C1.21755666 5.4389165 1.10428384 9.87080814 -1 15 C-1.33 15 -1.66 15 -2 15 C-2 4.625 -2 4.625 0 0 Z " fill="#DED39E" transform="translate(285,234)"/>
<path d="M0 0 C1.10844919 3.32534757 0.84454356 5.62182575 0 9 C-0.99 9.33 -1.98 9.66 -3 10 C-2.25 3.375 -2.25 3.375 0 0 Z " fill="#6B3B0F" transform="translate(214,221)"/>
<path d="M0 0 C0.99 0.33 1.98 0.66 3 1 C4.15941038 4.47823115 3.70820884 6.45895578 3 10 C0.3144406 7.3144406 -0.06049974 4.62378672 -1 1 C-0.67 0.67 -0.34 0.34 0 0 Z " fill="#623E1C" transform="translate(66,233)"/>
<path d="M0 0 C0.66 0 1.32 0 2 0 C3.5078125 1.96875 3.5078125 1.96875 5.125 4.5 C5.66382813 5.3353125 6.20265625 6.170625 6.7578125 7.03125 C7.16773438 7.6809375 7.57765625 8.330625 8 9 C2.37865749 7.53356282 2.37865749 7.53356282 0.625 5.0625 C0 3 0 3 0 0 Z " fill="#784D0C" transform="translate(169,127)"/>
<path d="M0 0 C3.55780196 0.60990891 6.6828589 1.5783681 10 3 C7.08235 4.9451 5.37462715 5.45276317 2 6 C2 4.35 2 2.7 2 1 C1.34 0.67 0.68 0.34 0 0 Z " fill="#78491B" transform="translate(154,94)"/>
<path d="M0 0 C2.4375 1 2.4375 1 4 2 C3.67 2.99 3.34 3.98 3 5 C2.34 4.34 1.68 3.68 1 3 C-1.44012949 2.75712511 -1.44012949 2.75712511 -4.125 2.875 C-5.03507813 2.89304688 -5.94515625 2.91109375 -6.8828125 2.9296875 C-7.58148438 2.95289063 -8.28015625 2.97609375 -9 3 C-9 2.34 -9 1.68 -9 1 C-5.97562661 -0.5121867 -3.33758466 -0.17263369 0 0 Z " fill="#7C5210" transform="translate(144,177)"/>
<path d="M0 0 C0.33 0.66 0.66 1.32 1 2 C0.22265625 3.7265625 0.22265625 3.7265625 -0.9375 5.625 C-1.618125 6.73875 -2.29875 7.8525 -3 9 C-3.99 8.34 -4.98 7.68 -6 7 C-4.55802132 4.11604263 -2.29355765 2.23474848 0 0 Z " fill="#704B1D" transform="translate(287,126)"/>
<path d="M0 0 C0.57234375 0.23589844 1.1446875 0.47179687 1.734375 0.71484375 C-5.465625 6.71484375 -5.465625 6.71484375 -10.265625 6.71484375 C-9.03009224 5.51229851 -7.77660161 4.32818143 -6.515625 3.15234375 C-5.81953125 2.49105469 -5.1234375 1.82976562 -4.40625 1.1484375 C-2.265625 -0.28515625 -2.265625 -0.28515625 0 0 Z " fill="#7A4C1D" transform="translate(134.265625,94.28515625)"/>
<path d="M0 0 C0 0.99 0 1.98 0 3 C-0.99 3 -1.98 3 -3 3 C-2.01 2.01 -1.02 1.02 0 0 Z M-5 4 C-4.34 4.33 -3.68 4.66 -3 5 C-3.33 5.99 -3.66 6.98 -4 8 C-5.98 8.33 -7.96 8.66 -10 9 C-8.35 7.35 -6.7 5.7 -5 4 Z " fill="#724805" transform="translate(200,236)"/>
<path d="M0 0 C1.36125 0.37125 1.36125 0.37125 2.75 0.75 C2.42 1.41 2.09 2.07 1.75 2.75 C-0.31640625 3.1640625 -0.31640625 3.1640625 -2.8125 3.375 C-3.63878906 3.44976562 -4.46507812 3.52453125 -5.31640625 3.6015625 C-6.27353516 3.67503906 -6.27353516 3.67503906 -7.25 3.75 C-4.05 -0.31153846 -4.05 -0.31153846 0 0 Z " fill="#EFCC69" transform="translate(164.25,182.25)"/>
<path d="M0 0 C1.485 0.99 1.485 0.99 3 2 C4.32 2 5.64 2 7 2 C6.67 2.99 6.34 3.98 6 5 C3.03 4.505 3.03 4.505 0 4 C-0.33 3.01 -0.66 2.02 -1 1 C-0.67 0.67 -0.34 0.34 0 0 Z " fill="#F6D665" transform="translate(152,177)"/>
<path d="M0 0 C0 0.66 0 1.32 0 2 C-4.29 1.67 -8.58 1.34 -13 1 C-13 0.67 -13 0.34 -13 0 C-4.57142857 -1.28571429 -4.57142857 -1.28571429 0 0 Z " fill="#8F6520" transform="translate(197,103)"/>
<path d="M0 0 C0 0.66 0 1.32 0 2 C-1.258125 2.04125 -2.51625 2.0825 -3.8125 2.125 C-4.52019531 2.14820313 -5.22789062 2.17140625 -5.95703125 2.1953125 C-8 2 -8 2 -11 0 C-7.01803543 -1.05404945 -4.01804691 -0.84098656 0 0 Z " fill="#633F1F" transform="translate(183,321)"/>
<path d="M0 0 C0.33 0.66 0.66 1.32 1 2 C2.98 1.34 4.96 0.68 7 0 C6.67 0.99 6.34 1.98 6 3 C4.15234375 3.73046875 4.15234375 3.73046875 1.9375 4.1875 C1.20402344 4.34605469 0.47054687 4.50460938 -0.28515625 4.66796875 C-1.13400391 4.83232422 -1.13400391 4.83232422 -2 5 C-1.34 3.35 -0.68 1.7 0 0 Z " fill="#794A1D" transform="translate(189,247)"/>
<path d="M0 0 C0.99 0.99 1.98 1.98 3 3 C3.66 2.67 4.32 2.34 5 2 C4.67 4.31 4.34 6.62 4 9 C1.49701566 6.06171403 0.53069061 3.82097239 0 0 Z " fill="#78491B" transform="translate(115,171)"/>
<path d="M0 0 C0.66 1.32 1.32 2.64 2 4 C0.625 5.5 0.625 5.5 -1 7 C-1.66 7 -2.32 7 -3 7 C-3 5.02 -3 3.04 -3 1 C-2.34 1.66 -1.68 2.32 -1 3 C-0.67 2.01 -0.34 1.02 0 0 Z " fill="#F3D364" transform="translate(171,113)"/>
<path d="M0 0 C0.66 0 1.32 0 2 0 C2.33 0.99 2.66 1.98 3 3 C2.34 3.66 1.68 4.32 1 5 C-1.31 4.34 -3.62 3.68 -6 3 C-6 2.67 -6 2.34 -6 2 C-4.02 1.67 -2.04 1.34 0 1 C0 0.67 0 0.34 0 0 Z " fill="#603D17" transform="translate(160,315)"/>
<path d="M0 0 C3.82097239 0.53069061 6.06171403 1.49701566 9 4 C8.67 4.66 8.34 5.32 8 6 C6.66402348 5.19185349 5.331275 4.37836819 4 3.5625 C3.2575 3.11003906 2.515 2.65757812 1.75 2.19140625 C1.1725 1.79824219 0.595 1.40507812 0 1 C0 0.67 0 0.34 0 0 Z " fill="#5B3E22" transform="translate(119,300)"/>
<path d="M0 0 C5.49152542 0.61016949 5.49152542 0.61016949 7.875 2.4375 C9 4 9 4 9 6 C5.06326356 4.68775452 2.77280706 3.08089673 0 0 Z " fill="#5F3E1F" transform="translate(110,294)"/>
<path d="M0 0 C0.99 0.33 1.98 0.66 3 1 C2.01 2.32 1.02 3.64 0 5 C-0.99 4.67 -1.98 4.34 -3 4 C-2.67 3.01 -2.34 2.02 -2 1 C-1.34 0.67 -0.68 0.34 0 0 Z " fill="#F4D469" transform="translate(197,235)"/>
<path d="M0 0 C0.99 0.99 1.98 1.98 3 3 C2.34 3 1.68 3 1 3 C1 4.32 1 5.64 1 7 C1.99 7.33 2.98 7.66 4 8 C3.01 8 2.02 8 1 8 C0.67 8.66 0.34 9.32 0 10 C-1.125 2.25 -1.125 2.25 0 0 Z " fill="#7F521C" transform="translate(154,183)"/>
<path d="M0 0 C0.99 1.485 0.99 1.485 2 3 C2.53625 3.680625 3.0725 4.36125 3.625 5.0625 C5 7 5 7 5 9 C5.66 9.33 6.32 9.66 7 10 C5.1875 9.8125 5.1875 9.8125 3 9 C0.46629412 5.65188866 0 4.29875783 0 0 Z " fill="#E8C669" transform="translate(155,150)"/>
<path d="M0 0 C0.33 0 0.66 0 1 0 C1.144375 0.763125 1.28875 1.52625 1.4375 2.3125 C1.9632594 5.08172908 1.9632594 5.08172908 3 8 C2.01 8.33 1.02 8.66 0 9 C-0.84454356 5.62182575 -1.10844919 3.32534757 0 0 Z " fill="#7C5116" transform="translate(155,131)"/>
<path d="M0 0 C0.33 0.99 0.66 1.98 1 3 C-1.60582371 3.93065133 -2.64198224 4.14917407 -5.25 3.0625 C-5.8275 2.711875 -6.405 2.36125 -7 2 C-4.35261084 0.5393715 -3.10551666 0 0 0 Z " fill="#6D4105" transform="translate(156,95)"/>
<path d="M0 0 C0.33 0.99 0.66 1.98 1 3 C-0.9375 6.1875 -0.9375 6.1875 -3 9 C-3.99 8.67 -4.98 8.34 -6 8 C-4.02 5.36 -2.04 2.72 0 0 Z " fill="#593B21" transform="translate(86,92)"/>
<path d="M0 0 C-0.25 1.875 -0.25 1.875 -1 4 C-2.9375 5.1875 -2.9375 5.1875 -5 6 C-5.99 6.495 -5.99 6.495 -7 7 C-3.86206897 0 -3.86206897 0 0 0 Z " fill="#FADA74" transform="translate(133,182)"/>
<path d="M0 0 C0.99 0.33 1.98 0.66 3 1 C1.02 3.97 1.02 3.97 -1 7 C-3 4 -3 4 -3 2 C-2.34 2 -1.68 2 -1 2 C-0.67 1.34 -0.34 0.68 0 0 Z " fill="#DED29A" transform="translate(309,129)"/>
<path d="M0 0 C3.63 0.66 7.26 1.32 11 2 C11 2.33 11 2.66 11 3 C8.3125 3.75 8.3125 3.75 5 4 C2.125 2.0625 2.125 2.0625 0 0 Z " fill="#623F1F" transform="translate(226,43)"/>
</svg>
